<svg xmlns="http://www.w3.org/2000/svg" xmlns:xlink="http://www.w3.org/1999/xlink" width="500" zoomAndPan="magnify" viewBox="0 0 375 374.999991" height="500" preserveAspectRatio="xMidYMid meet" version="1.0"><defs><g/></defs><g fill="#000000" fill-opacity="1"><g transform="translate(33.520289, 219.449986)"><g><path d="M 44.714844 -25.003906 L 44.980469 -25.003906 C 46.699219 -25.003906 50.269531 -29.367188 45.640625 -31.484375 L 44.847656 -31.882812 C 49.742188 -47.097656 55.164062 -62.441406 58.605469 -76.464844 C 58.738281 -76.863281 57.148438 -81.226562 54.902344 -81.226562 C 53.976562 -81.226562 53.179688 -80.566406 52.253906 -79.375 C 41.9375 -64.160156 30.296875 -49.742188 19.183594 -35.191406 C 10.320312 -34.792969 2.644531 -33.074219 1.058594 -29.367188 C -0.925781 -25.136719 2.644531 -17.332031 2.25 -10.980469 L -0.925781 -5.953125 C -1.851562 -4.367188 0.132812 -0.792969 1.585938 -0.792969 C 1.851562 -0.792969 1.984375 -0.925781 2.382812 -1.191406 C 6.21875 -9.789062 12.433594 -19.183594 19.710938 -29.238281 C 25.136719 -28.972656 30.824219 -28.179688 35.851562 -27.253906 C 32.148438 -15.875 28.046875 -3.96875 25.796875 7.539062 C 25.003906 10.582031 28.574219 16.402344 30.425781 16.402344 C 30.824219 16.402344 31.089844 16.140625 31.351562 15.347656 C 34 1.324219 38.234375 -12.171875 42.730469 -25.664062 C 43.390625 -25.53125 44.054688 -25.269531 44.714844 -25.003906 Z M 37.96875 -33.734375 C 33.734375 -34.527344 28.839844 -35.058594 23.8125 -35.191406 C 31.75 -45.640625 40.085938 -56.488281 47.492188 -67.074219 C 44.449219 -56.09375 41.144531 -44.980469 37.96875 -33.734375 Z M 7.671875 -28.707031 C 9.789062 -29.105469 12.171875 -29.238281 14.816406 -29.238281 C 11.378906 -24.605469 8.070312 -19.84375 4.761719 -14.949219 C 4.761719 -15.347656 4.628906 -15.609375 4.628906 -16.007812 C 3.835938 -21.960938 0.792969 -27.253906 7.671875 -28.707031 Z M 7.671875 -28.707031 "/></g></g></g><g fill="#000000" fill-opacity="1"><g transform="translate(76.511677, 219.449986)"><g/></g></g><g fill="#000000" fill-opacity="1"><g transform="translate(92.385421, 219.449986)"><g><path d="M 28.972656 -26.722656 C 24.34375 -19.050781 18.257812 -9.523438 13.097656 -1.984375 C 6.613281 -0.792969 0.398438 0.925781 -4.234375 2.511719 C -6.21875 3.042969 -6.746094 6.613281 -5.953125 7.804688 C -5.292969 7.539062 -4.367188 7.410156 -3.308594 7.144531 C -1.851562 11.113281 0.132812 14.15625 3.96875 14.15625 C 10.054688 14.15625 14.816406 7.671875 17.992188 3.441406 C 23.8125 2.910156 29.898438 2.644531 35.453125 2.644531 C 48.285156 2.644531 59.132812 4.234375 60.589844 8.335938 C 60.589844 8.597656 60.722656 9.128906 60.855469 9.128906 C 60.988281 9.128906 60.988281 9.128906 61.117188 8.996094 C 61.515625 8.335938 61.515625 7.539062 61.648438 6.878906 C 63.105469 -1.585938 52.519531 -4.628906 38.894531 -4.628906 C 33.734375 -4.628906 28.441406 -4.234375 23.019531 -3.703125 C 28.179688 -11.507812 33.867188 -20.902344 38.628906 -29.105469 C 52.917969 -34.660156 68.925781 -51.328125 68 -65.617188 C 67.867188 -68.660156 65.351562 -70.644531 62.441406 -70.644531 C 55.5625 -70.644531 50.007812 -60.722656 46.964844 -56.09375 C 39.6875 -44.714844 39.6875 -44.582031 32.808594 -33.074219 C 29.898438 -32.015625 27.121094 -31.617188 24.472656 -31.617188 C 19.84375 -31.617188 15.742188 -33.207031 13.097656 -36.511719 C 11.90625 -38.101562 13.363281 -40.878906 12.566406 -41.804688 C 12.433594 -42.070312 12.171875 -42.203125 11.90625 -42.203125 C 9.65625 -42.203125 8.464844 -26.328125 24.472656 -26.328125 C 25.796875 -26.328125 27.382812 -26.457031 28.972656 -26.722656 Z M 43.257812 -37.703125 C 45.507812 -42.070312 59.003906 -65.089844 62.839844 -65.089844 C 69.320312 -65.089844 55.296875 -46.300781 43.257812 -37.703125 Z M -0.265625 6.21875 C 2.382812 5.6875 5.160156 5.292969 8.203125 4.628906 C 6.085938 7.277344 4.496094 8.863281 3.441406 9.128906 C 3.308594 9.261719 3.042969 9.261719 2.910156 9.261719 C 1.585938 9.261719 0.398438 7.804688 -0.265625 6.21875 Z M -0.265625 6.21875 "/></g></g></g><g fill="#000000" fill-opacity="1"><g transform="translate(145.694732, 219.449986)"><g><path d="M 25.269531 -10.320312 C 25.003906 -11.113281 25.136719 -12.433594 25.796875 -14.550781 C 26.328125 -17.726562 28.046875 -23.546875 30.691406 -25.664062 C 31.75 -26.328125 31.617188 -26.457031 30.824219 -27.382812 C 29.5 -28.972656 28.046875 -29.632812 26.722656 -29.632812 C 26.195312 -29.632812 25.664062 -29.5 25.003906 -29.238281 C 26.0625 -33.074219 26.722656 -37.304688 23.8125 -40.480469 C 23.019531 -41.273438 21.828125 -42.070312 20.503906 -42.070312 C 19.050781 -42.070312 17.460938 -41.273438 15.609375 -39.6875 C 7.671875 -33.207031 -7.144531 -6.613281 3.308594 -1.851562 C 4.101562 -1.457031 4.628906 -1.191406 5.425781 -1.191406 C 5.6875 -1.191406 5.953125 -1.324219 6.21875 -1.324219 C 9.789062 -2.910156 14.550781 -10.714844 18.519531 -17.199219 C 18.519531 -16.933594 18.519531 -16.800781 18.386719 -16.402344 C 17.859375 -12.832031 17.460938 -8.464844 20.109375 -5.953125 C 20.902344 -5.160156 21.828125 -4.628906 23.019531 -4.628906 C 30.164062 -4.628906 40.878906 -22.09375 43.523438 -25.929688 C 43.128906 -27.382812 42.730469 -27.382812 41.671875 -27.382812 C 41.011719 -26.457031 29.5 -9.921875 26.0625 -9.921875 C 25.796875 -9.921875 25.53125 -10.054688 25.269531 -10.320312 Z M 19.84375 -32.808594 C 20.902344 -33.734375 21.695312 -34.394531 22.359375 -34.394531 C 23.414062 -34.394531 23.679688 -32.28125 23.152344 -27.914062 C 21.960938 -26.988281 21.300781 -25.664062 20.636719 -24.34375 C 15.742188 -17.59375 9.523438 -7.144531 7.539062 -7.144531 C 5.6875 -8.730469 14.683594 -27.253906 19.84375 -32.808594 Z M 19.84375 -32.808594 "/></g></g></g><g fill="#000000" fill-opacity="1"><g transform="translate(178.103619, 219.449986)"><g/></g></g><g fill="#000000" fill-opacity="1"><g transform="translate(193.973404, 219.449986)"><g><path d="M 54.238281 -71.171875 L 55.164062 -71.171875 C 65.21875 -70.246094 45.375 -37.703125 37.175781 -35.320312 C 36.777344 -35.191406 37.304688 -34.660156 38.363281 -34.660156 C 39.6875 -34.660156 41.9375 -35.191406 44.980469 -37.570312 C 53.3125 -43.65625 62.972656 -58.339844 62.308594 -68.925781 C 61.914062 -75.273438 57.945312 -76.863281 52.519531 -76.863281 C 36.644531 -76.863281 17.992188 -57.8125 8.996094 -37.703125 C 1.058594 -19.445312 1.324219 -0.398438 14.683594 4.367188 C 16.273438 4.761719 17.859375 5.160156 19.710938 5.160156 C 31.089844 5.160156 44.054688 -6.21875 51.328125 -14.683594 C 51.726562 -15.082031 52.917969 -16.402344 52.125 -16.800781 C 51.859375 -16.933594 51.460938 -17.066406 51.195312 -17.066406 C 50.402344 -17.066406 49.609375 -16.273438 48.949219 -15.742188 C 42.597656 -8.863281 32.410156 0 22.886719 0 C 19.183594 0 16.140625 -1.457031 14.289062 -4.101562 C 0.398438 -23.414062 36.117188 -71.171875 54.238281 -71.171875 Z M 54.238281 -71.171875 "/></g></g></g><g fill="#000000" fill-opacity="1"><g transform="translate(241.594624, 219.449986)"><g><path d="M 25.269531 -10.320312 C 25.003906 -11.113281 25.136719 -12.433594 25.796875 -14.550781 C 26.328125 -17.726562 28.046875 -23.546875 30.691406 -25.664062 C 31.75 -26.328125 31.617188 -26.457031 30.824219 -27.382812 C 29.5 -28.972656 28.046875 -29.632812 26.722656 -29.632812 C 26.195312 -29.632812 25.664062 -29.5 25.003906 -29.238281 C 26.0625 -33.074219 26.722656 -37.304688 23.8125 -40.480469 C 23.019531 -41.273438 21.828125 -42.070312 20.503906 -42.070312 C 19.050781 -42.070312 17.460938 -41.273438 15.609375 -39.6875 C 7.671875 -33.207031 -7.144531 -6.613281 3.308594 -1.851562 C 4.101562 -1.457031 4.628906 -1.191406 5.425781 -1.191406 C 5.6875 -1.191406 5.953125 -1.324219 6.21875 -1.324219 C 9.789062 -2.910156 14.550781 -10.714844 18.519531 -17.199219 C 18.519531 -16.933594 18.519531 -16.800781 18.386719 -16.402344 C 17.859375 -12.832031 17.460938 -8.464844 20.109375 -5.953125 C 20.902344 -5.160156 21.828125 -4.628906 23.019531 -4.628906 C 30.164062 -4.628906 40.878906 -22.09375 43.523438 -25.929688 C 43.128906 -27.382812 42.730469 -27.382812 41.671875 -27.382812 C 41.011719 -26.457031 29.5 -9.921875 26.0625 -9.921875 C 25.796875 -9.921875 25.53125 -10.054688 25.269531 -10.320312 Z M 19.84375 -32.808594 C 20.902344 -33.734375 21.695312 -34.394531 22.359375 -34.394531 C 23.414062 -34.394531 23.679688 -32.28125 23.152344 -27.914062 C 21.960938 -26.988281 21.300781 -25.664062 20.636719 -24.34375 C 15.742188 -17.59375 9.523438 -7.144531 7.539062 -7.144531 C 5.6875 -8.730469 14.683594 -27.253906 19.84375 -32.808594 Z M 19.84375 -32.808594 "/></g></g></g><g fill="#000000" fill-opacity="1"><g transform="translate(274.003512, 219.449986)"><g><path d="M 23.285156 -41.671875 C 22.886719 -42.203125 22.226562 -42.730469 21.695312 -43.257812 C 23.546875 -46.300781 25.003906 -49.210938 25.929688 -51.726562 C 26.722656 -53.976562 25.796875 -59.929688 22.753906 -59.664062 C 17.199219 -59.265625 10.980469 -49.34375 17.59375 -42.730469 C 13.492188 -35.851562 8.863281 -26.988281 5.953125 -23.019531 C 5.820312 -22.753906 5.953125 -21.429688 6.878906 -21.429688 C 7.144531 -21.429688 7.539062 -21.5625 8.335938 -22.09375 C 11.378906 -25.929688 14.15625 -32.015625 19.84375 -40.347656 C 20.242188 -39.820312 20.636719 -39.289062 20.769531 -38.894531 C 23.8125 -33.074219 7.011719 -12.566406 7.277344 -2.511719 C 7.277344 0.527344 8.730469 5.425781 12.566406 5.425781 C 12.964844 5.425781 13.230469 5.292969 13.625 5.160156 C 20.636719 1.71875 35.453125 -22.359375 37.304688 -24.871094 C 37.570312 -25.269531 37.304688 -25.929688 36.777344 -26.195312 C 36.511719 -26.328125 36.378906 -26.457031 36.117188 -26.457031 C 35.851562 -26.457031 35.71875 -26.328125 35.320312 -26.0625 C 32.28125 -21.960938 17.066406 1.457031 13.230469 0.792969 C 15.347656 -6.878906 23.414062 -20.636719 25.269531 -25.796875 C 27.253906 -30.691406 28.839844 -38.101562 23.285156 -41.671875 Z M 22.359375 -54.109375 C 23.019531 -54.109375 23.152344 -53.3125 22.359375 -51.195312 C 21.828125 -49.476562 20.902344 -47.625 19.976562 -46.171875 C 17.59375 -49.34375 21.167969 -54.109375 22.359375 -54.109375 Z M 22.359375 -54.109375 "/></g></g></g><g fill="#000000" fill-opacity="1"><g transform="translate(301.253438, 219.449986)"><g><path d="M -3.96875 -44.582031 L -3.703125 -44.582031 C 2.777344 -45.242188 9.261719 -45.90625 15.875 -46.300781 C 8.730469 -31.882812 0.925781 -11.640625 -1.324219 -2.644531 C -2.25 0.398438 -3.308594 8.597656 1.457031 8.730469 C 3.308594 -4.761719 15.742188 -31.089844 25.136719 -46.832031 C 30.824219 -47.097656 36.378906 -47.492188 41.804688 -47.890625 C 45.375 -48.285156 46.832031 -54.238281 44.054688 -54.109375 C 39.160156 -53.445312 33.867188 -52.652344 28.574219 -52.125 C 30.425781 -55.035156 32.148438 -57.148438 33.46875 -58.339844 C 34.792969 -59.664062 32.808594 -63.105469 28.972656 -63.105469 C 28.179688 -63.105469 27.382812 -62.972656 26.328125 -62.574219 C 24.605469 -61.914062 21.5625 -57.148438 17.992188 -50.667969 L -4.101562 -47.625 C -5.554688 -47.359375 -5.292969 -44.582031 -3.96875 -44.582031 Z M -3.96875 -44.582031 "/></g></g></g><g fill="#000000" fill-opacity="1"><g transform="translate(315.407524, 219.449986)"><g><path d="M 8.597656 0.265625 C 17.992188 0.265625 27.121094 -12.433594 32.015625 -19.183594 C 33.734375 -21.695312 35.058594 -23.679688 35.851562 -24.738281 C 35.851562 -25.796875 35.058594 -26.195312 34.527344 -26.195312 C 34.394531 -26.195312 34.265625 -26.195312 34.265625 -26.0625 C 28.972656 -18.785156 17.992188 -4.101562 8.335938 -4.101562 C 4.496094 -4.496094 5.292969 -9.261719 7.539062 -14.683594 C 8.335938 -13.625 9.789062 -13.097656 11.378906 -13.097656 C 15.875 -13.230469 21.300781 -19.976562 23.019531 -24.078125 L 23.019531 -24.34375 C 23.414062 -25.003906 23.546875 -25.796875 23.8125 -26.722656 C 24.605469 -30.957031 21.5625 -34.660156 17.460938 -34.660156 C 16.007812 -34.660156 14.417969 -34.265625 12.832031 -33.207031 C 4.628906 -27.78125 -5.292969 -11.90625 2.511719 -2.511719 C 3.96875 -0.527344 6.085938 0.265625 8.597656 0.265625 Z M 19.445312 -29.367188 C 19.976562 -29.367188 20.371094 -29.238281 20.636719 -28.839844 C 20.902344 -28.179688 20.769531 -27.382812 20.503906 -26.328125 C 18.519531 -21.5625 12.566406 -16.140625 9.921875 -16.140625 C 9.261719 -16.140625 8.863281 -16.402344 8.597656 -17.066406 C 11.90625 -23.285156 16.933594 -29.367188 19.445312 -29.367188 Z M 19.445312 -29.367188 "/></g></g></g></svg>